<?xml version="1.0" encoding="UTF-8" standalone="no"?>
<!-- Created with Inkscape (http://www.inkscape.org/) -->

<svg
   width="33.866665mm"
   height="33.866669mm"
   viewBox="0 0 33.866665 33.866669"
   version="1.1"
   id="svg1"
   inkscape:version="1.4.1-rc (d9e8dc1fe0, 2025-03-10)"
   sodipodi:docname="io.github.rsvzz.csven.svg"
   inkscape:export-filename="/run/user/1000/doc/ef70057f/io.github.rsvzz.csven.svg"
   inkscape:export-xdpi="96"
   inkscape:export-ydpi="96"
   xmlns:inkscape="http://www.inkscape.org/namespaces/inkscape"
   xmlns:sodipodi="http://sodipodi.sourceforge.net/DTD/sodipodi-0.dtd"
   xmlns="http://www.w3.org/2000/svg"
   xmlns:svg="http://www.w3.org/2000/svg">
  <sodipodi:namedview
     id="namedview1"
     pagecolor="#ffffff"
     bordercolor="#000000"
     borderopacity="0.25"
     inkscape:showpageshadow="2"
     inkscape:pageopacity="0.0"
     inkscape:pagecheckerboard="0"
     inkscape:deskcolor="#d1d1d1"
     inkscape:document-units="px"
     inkscape:zoom="1.0351712"
     inkscape:cx="417.80529"
     inkscape:cy="233.29474"
     inkscape:window-width="1536"
     inkscape:window-height="792"
     inkscape:window-x="0"
     inkscape:window-y="0"
     inkscape:window-maximized="1"
     inkscape:current-layer="layer2"
     inkscape:export-bgcolor="#00000000"
     showguides="false">
    <sodipodi:guide
       position="106.82886,54.16651"
       orientation="0,-1"
       id="guide1"
       inkscape:locked="false" />
    <inkscape:page
       x="0"
       y="0"
       width="33.866665"
       height="33.866669"
       id="page2"
       margin="0"
       bleed="0" />
  </sodipodi:namedview>
  <defs
     id="defs1" />
  <g
     inkscape:groupmode="layer"
     id="layer2"
     inkscape:label="image"
     style="opacity:1"
     transform="matrix(0.96749857,0.00573901,0.03702068,0.71259142,-157.0101,-100.11821)"
     inkscape:export-filename="io.github.rsvzz.csven.svg"
     inkscape:export-xdpi="10.946801"
     inkscape:export-ydpi="10.946801">
    <g
       id="g9"
       transform="matrix(0.23658331,0,0,0.2621913,151.11287,117.14323)">
      <path
         style="fill:#cccccc;stroke-width:0.264583"
         d="m 60.831325,99.170396 64.665235,1.022374 -2.81153,87.92426 c 0,0 -71.566271,4.0895 -69.521518,-1.27797 2.04475,-5.36747 7.667813,-87.668664 7.667813,-87.668664 z"
         id="path2" />
      <path
         style="opacity:1;fill:#784421;stroke-width:0.264583"
         d="m 155.14544,87.413081 -53.4191,64.154049 -7.923413,17.12478 14.824443,-10.99053 51.62994,-65.943204 z"
         id="path1" />
      <path
         style="fill:#1a1a1a;stroke-width:0.264583"
         d="m 70.799483,109.13855 42.939757,0.76679 0.51119,0.51118 -1.02238,1.02238 -42.68416,1.27797 z"
         id="path5" />
      <path
         style="fill:#1a1a1a;stroke-width:0.264583"
         d="m 71.310671,121.91824 42.172979,0.51119 -1.02238,3.06713 -41.91738,0.76678 z"
         id="path6" />
      <path
         style="fill:#1a1a1a;stroke-width:0.264583"
         d="m 72.077452,132.65318 39.105848,-0.25559 -1.27796,5.62306 c 0,0 -39.617045,0.76678 -38.594669,-0.51118 1.022374,-1.27797 0.766781,-4.85629 0.766781,-4.85629 z"
         id="path7" />
    </g>
    <path
       style="fill:#4d4d4d;stroke-width:0.110635"
       d="m 186.36279,173.0921 -0.35121,8.37687 c -10.72355,3.66674 -24.97206,2.56514 -25.23324,-0.57627 l -1.36441,-16.1182 6.13017,0.9169 2.76287,-2.43393 4.32782,1.71501 3.73833,-2.26381 4.32646,1.55085 4.5761,-1.91862 1.31636,4.45234 z"
       id="path9"
       sodipodi:nodetypes="cccccccccccc" />
    <path
       style="fill:#ffffff;stroke-width:0.264583"
       d="m 167.66953,168.69191 -1.02237,11.24613 5.36747,-0.76678 -1.02238,-10.73494 z"
       id="path10" />
    <path
       style="fill:#ffffff;stroke-width:0.264583"
       d="m 175.84854,168.9475 1.02237,10.22376 3.57831,-1.02238 -0.76678,-10.73494 z"
       id="path11" />
  </g>
</svg>
